<svg xmlns="http://www.w3.org/2000/svg" viewBox="0 0 32 32" width="30" height="30" fill="white">
  <path d="M16 .667C7.897.667 1.333 7.23 1.333 15.333c0 2.703.707 5.303 2.04 7.607L1.013 31.12l8.36-2.32A14.618 14.618 0 0 0 16 30c8.103 0 14.667-6.564 14.667-14.667C30.667 7.23 24.103.667 16 .667zm0 26.666c-2.16 0-4.26-.57-6.097-1.65l-.433-.257-4.967 1.38 1.34-4.84-.283-.45a11.965 11.965 0 0 1-1.773-6.133c0-6.593 5.373-11.967 11.967-11.967s11.967 5.373 11.967 11.967S22.593 27.333 16 27.333zm6.547-8.74c-.373-.187-2.213-1.09-2.56-1.213-.347-.13-.6-.187-.853.187-.253.36-.98 1.213-1.2 1.467-.22.26-.44.28-.813.093-.373-.187-1.577-.58-3.003-1.853-1.11-.993-1.86-2.22-2.08-2.593-.22-.373-.02-.573.167-.753.173-.173.386-.453.58-.68.193-.227.26-.38.387-.633.127-.253.063-.473-.03-.66-.093-.187-.853-2.06-1.167-2.82-.307-.74-.62-.64-.853-.653-.22-.01-.473-.013-.727-.013-.253 0-.66.093-1.007.473-.347.373-1.32 1.287-1.32 3.14 0 1.853 1.353 3.647 1.54 3.9.187.253 2.66 4.08 6.44 5.707.9.387 1.6.62 2.147.793.903.287 1.723.247 2.373.15.723-.107 2.213-.903 2.527-1.773.313-.867.313-1.61.22-1.773-.093-.16-.34-.26-.713-.433z"></path>
</svg>
